<svg xmlns="http://www.w3.org/2000/svg" fill="#FFC700" viewBox="0 0 48 40">
  <path d="m47.8 5.2-6.3-2.1V0H26.9v3.1l-6.3 2.1v7.1h27.2V5.2Zm-11.1 15-.4 2.5a3.6 3.6 0 0 1 3.2.4l.5-3h-3.3v.1Zm-.3 10 1 3.8h3.3l-1.2-4.4c-.9.7-2.2.9-3.1.6Zm4.4 5.7h-3.4a1 1 0 0 0-1 1v1.2h5.5v-1.2c0-.6-.5-1-1.1-1Zm-11.5.2h-3.4a1 1 0 0 0-1 1v1.2h5.5v-1.2c0-.5-.5-1-1.1-1Zm9.9-9.7a1.9 1.9 0 1 0-1.9 1.9c1.1.1 1.9-.8 1.9-1.9Zm-20.6-.6v-2.6l-1.5 1.3c.5.5.9 1.2 1 1.9.2-.2.3-.4.5-.6Zm6 5c-.6.8-1.5 1.3-2.5 1.4h-.6a4 4 0 0 1-2.6-1l-.7 3.9h3.3l.6-2.9 2.6 1.8h4.6l-4.7-3.2Zm-10.2-5.5a1.9 1.9 0 1 0 1.9 1.9c0-.9-.8-1.9-1.9-1.9Zm28.2 6.9 1 3.8h3.3l-1.2-4.4a4 4 0 0 1-3.1.6Z"/>
  <path d="M23.5 25c0-.1.5-2.4.4-2.2l.5-2.6 3.3-2h13l2.4 2.1-.4 2.2-.4 2.1a3.6 3.6 0 0 1 3.2.4v-.2L46 22l1.8-3.9v-4H20.6l-.4 10.5c1.1-.3 2.3-.2 3.3.4ZM47 37.8h-3.4a1 1 0 0 0-1 1V40H48v-1.2c0-.5-.5-1-1-1Zm-25.3-.6h-3.4a1 1 0 0 0-1 1v1.2h5.5v-1.2c-.1-.5-.5-1-1.1-1Zm23.7-8.8a1.9 1.9 0 1 0-1.9 1.9c1 0 1.9-.9 1.9-1.9Zm-23.9 1.9c1.1 0 1.9-.9 1.9-1.9 0-2.5-3.9-2.6-3.9 0 .1 1.1 1 1.9 2 1.9ZM0 9v3.3h11.8V4.6H4.4L0 9Zm6.9-2.8c1.5 0 2.8 1.2 2.8 2.8 0 1.6-1.2 2.8-2.8 2.8a2.8 2.8 0 1 1 0-5.6Z"/>
  <path d="M6.9 10.3c.8 0 1.4-.6 1.4-1.4 0-.8-.6-1.4-1.4-1.4-.7 0-1.4.6-1.4 1.4 0 .8.6 1.4 1.4 1.4Zm11.7-4.2h-1.4v4.7h1.4V6.1Zm-3.3 0h-1.4v4.7h1.4V6.1Z"/>
</svg>
