<svg xmlns="http://www.w3.org/2000/svg" fill="#FFC700" viewBox="0 0 50 51">
  <path d="M32.92 7.08A3.8 3.8 0 0 0 30 10h2.92V7.08Zm1.56 0V10h2.92a3.8 3.8 0 0 0-2.92-2.92Zm-1.56 7.4v-2.92H30c.2 1.46 1.46 2.6 2.92 2.92Zm4.48-2.92h-2.92v2.92a3.8 3.8 0 0 0 2.92-2.92ZM50 24.69a5.87 5.87 0 1 0-2.6 11.46c1.77-3.44 2.6-7.3 2.6-11.46Z"/>
  <path d="M48.23 15.73A25.06 25.06 0 0 0 25 0C17.19 0 10.2 3.54 5.63 9.17c2.08-.1 4.27-.21 6.56-.52.52-.1 1.04.3 1.14.93.1.63-.3 1.15-.93 1.15-2.92.42-5.73.62-8.44.62a11.4 11.4 0 0 0-1.25 2.2c4.58.2 9.58-.22 14.69-1.26.52-.1 1.14.21 1.25.84.1.52-.21 1.14-.84 1.24-5.2 1.05-10.62 1.67-16.04 1.26a16.6 16.6 0 0 0-.73 2.08c7.71.83 15-.42 20.31-1.77.52-.1 1.15.2 1.25.73.1.52-.2 1.14-.73 1.25C14.9 19.69 7.5 20.52.52 19.69c-.1.62-.2 1.35-.31 1.98 7.92 1.14 16.87.3 25.83-2.5.52-.21 1.15.1 1.36.62.2.52-.1 1.15-.63 1.36-8.64 2.7-17.92 3.95-26.77 2.6v2.4c11.77 1.66 35.52-2.2 48.23-10.42ZM33.65 4.9a5.93 5.93 0 1 1 0 11.87 5.87 5.87 0 0 1-5.94-5.94 6 6 0 0 1 5.94-5.93Z"/>
  <path d="M41.25 30.42a7.4 7.4 0 0 1 8.65-7.3c-.1-1.87-.52-3.64-1.05-5.41C36.15 25.63 13.12 30.1.21 28.44l.31 1.87c8.23 1.46 17.6.73 27.08-2.4.52-.2 1.15.11 1.36.63.2.52-.1 1.15-.63 1.36-8.64 2.8-18.12 3.95-27.18 2.6.2.73.52 1.46.83 2.19 8.12 1.35 16.04.31 21.77-1.04.52-.1 1.15.2 1.25.73.1.52-.2 1.14-.83 1.25-6.88 1.56-14.07 2.18-21.15 1.25.42.83.94 1.56 1.35 2.29 5 .62 10.53.52 16.46-.42.63-.1 1.15.31 1.15.83.1.52-.31 1.15-.83 1.15a59.45 59.45 0 0 1-15 .73 26 26 0 0 0 2.4 2.4c3.64.2 7.5.1 11.55-.53.52-.1 1.15.32 1.15.94.1.52-.31 1.15-.94 1.15-3.02.41-5.94.62-8.96.62A25.23 25.23 0 0 0 24.9 50.1a25 25 0 0 0 21.66-12.5 7.53 7.53 0 0 1-5.31-7.18ZM35.31 44.9a5.11 5.11 0 1 1 5.1-5.1 5.18 5.18 0 0 1-5.1 5.1Z"/>
  <path d="M35.31 43.33a3.54 3.54 0 1 0 0-7.08 3.54 3.54 0 0 0 0 7.08Z"/>
</svg>
