<svg xmlns="http://www.w3.org/2000/svg" fill="#FFC700" viewBox="0 0 37 51">
  <path d="M10.09 38.65c0-.36.07-.71.18-1.04l-3.4-1.97a7.06 7.06 0 0 0-.02 5.98l3.4-1.97c-.1-.32-.16-.66-.16-1Zm-2.62 4.06a7.1 7.1 0 0 0 5.2 3.01v-3.94a3.2 3.2 0 0 1-1.8-1.04l-3.4 1.97Zm11.61-8.15a7.09 7.09 0 0 0-5.16-2.97v3.93c.68.13 1.3.49 1.76 1.01l3.4-1.97Zm-3.84 4.09c0-1.06-.88-1.95-1.95-1.95-1.07 0-1.95.89-1.95 1.95a1.95 1.95 0 0 0 3.9 0Zm-2.57-3.13v-3.93a7.1 7.1 0 0 0-5.17 2.97l3.4 1.97a3.2 3.2 0 0 1 1.77-1.01Z"/>
  <path d="M35.9 27.91a1.93 1.93 0 0 0-2.34-.4l-6.94 3.78a1.67 1.67 0 0 1-2.45-1.42L23.49 5.3a2.47 2.47 0 1 0-4.94-.02V26a.63.63 0 0 1-1.25 0V2.47a2.47 2.47 0 0 0-4.93 0v22.5a.63.63 0 0 1-1.25 0V6.07a2.47 2.47 0 0 0-4.94 0v19.94a.63.63 0 0 1-1.25 0V9.34a2.47 2.47 0 0 0-4.93 0l.96 35.75A5.53 5.53 0 0 0 6.5 50.5h15.3a5.55 5.55 0 0 0 4.88-2.9l9.49-17.46c.4-.73.28-1.62-.27-2.23Zm-22.6 19.1a8.37 8.37 0 0 1 0-16.72 8.37 8.37 0 0 1 0 16.71Z"/>
  <path d="M13.92 41.78v3.94a7.1 7.1 0 0 0 5.2-3.01l-3.41-1.97c-.46.54-1.09.9-1.8 1.04Zm2.58-3.13c0 .34-.07.68-.17 1l3.4 1.97a7.05 7.05 0 0 0-.02-5.97l-3.4 1.96a3 3 0 0 1 .19 1.04Z"/>
</svg>
