<svg xmlns="http://www.w3.org/2000/svg" fill="#FFC700" viewBox="0 0 72 32">
  <path fill-rule="evenodd" d="M0 10v5h14.69c1.7 0 3.88-1.57 3.88-4.17 0-1.05.4-1.73-.83-3.11L15.86 5.5c-1.07-1 .13-1 1.03-1h6.2V15h4.92V4.5h6.63V0H13.18c-2.61 0-3.89 2.5-3.82 3.8.08 1.3.32 2.94 2.49 4.9 1.97 1.8-.98 1.3-1.28 1.3H0ZM45.51 0h-7.93l-4.45 15h4.95l.8-2.1h5.23l.77 2.1h4.85L45.5 0ZM40 9.3l1.7-5.5 1.61 5.5H40Zm25.4.7c-1.9 0-1.9-.7-1.9-.7 1.63 0 3.08-2.37 3.08-4.8 0-2.43-2.38-4.5-4.29-4.5H51.61v15h5.42v-5s2.31 2.7 3.52 3.8c1.2 1.1 1.3 1.2 2.94 1.2h8.5v-5h-6.6Zm-4.92-3.5h-3.44V3.8h3.44c1.58 0 1.85 2.7 0 2.7ZM0 16.9h5.55l1.4 5.01 1.3-5h5.83l1.5 5 1.52-5h4.82l-4.42 15h-4.42l-1.94-7.1-2.18 7.1H4.44L0 16.92Zm33.3.1h-7.93l-4.45 15h4.95l.8-2.1h5.23l.77 2.1h4.85L33.3 17Zm-5.52 9.3 1.7-5.5 1.61 5.5h-3.31Zm37.71-4.89c-.9 0-1.88.1-.8 1.1l1.87 2.22c1.24 1.39 1.22 1.97 1.22 3.01 0 2.6-2.59 4.18-4.3 4.18L51.63 32c-1.63 0-1.73-.1-2.94-1.2-1.2-1.1-3.51-3.8-3.51-3.8v5h-5.42V17h10.67c1.9 0 4.29 2.06 4.29 4.49s-1.45 4.8-3.09 4.8c0 0 .72.72 1.93.72h5.84c.3 0 3.26.5 1.28-1.3-2.17-1.96-2.41-3.6-2.48-4.9-.08-1.3 1.05-3.9 3.66-3.9H72v4.5h-6.5ZM48.61 23.5h-3.44v-2.7h3.44c1.58 0 1.85 2.7 0 2.7Z" clip-rule="evenodd"/>
</svg>
