<svg xmlns="http://www.w3.org/2000/svg" fill="#FFC700" viewBox="0 0 60 42">
  <path d="M55.2 37.28a.75.75 0 0 0 0-.99l-6.92-6.92a.75.75 0 0 0-.99 0l-.12.25a.75.75 0 0 0 0 .99l6.92 6.92c.25.24.74.24.99 0l.12-.25Zm.87-1.73c.24.25.74.25.98 0l.13-.12a.75.75 0 0 0 0-1l-6.92-6.91a.75.75 0 0 0-.99 0l-.12.12a.75.75 0 0 0 0 1l6.92 6.91Zm-9.64-4.2a.75.75 0 0 0-.99 0l-.12.12a.75.75 0 0 0 0 1l6.92 6.91c.24.25.74.25.98 0l.13-.12a.75.75 0 0 0 0-1l-6.92-6.91ZM59.4 37.4a.97.97 0 0 0-1.36 0l-2.84 2.85a.97.97 0 0 0 0 1.35c.37.38.99.38 1.36 0l2.84-2.84a.97.97 0 0 0 0-1.36ZM47.17 24.43l.25-.25a.97.97 0 0 0 0-1.35l-.25-.25a.97.97 0 0 0-1.36 0l-.25.25-3.33-3.34-2.84 7.04 1.23 1.24-.24.24a.97.97 0 0 0 0 1.36l.24.25c.37.37.99.37 1.36 0l.25-.25 1.23 1.24 4.95-4.94-1.24-1.24ZM1.09 36.54l.74.74-1.48 1.48 3.2 3.22 1.5-1.49.6.74 4.7-4.7-4.7-4.56-4.56 4.57Zm7.36-7.41-1.4 1.4 4.64 4.63 1.4-1.4-4.64-4.63Zm2.78-2.7-1.4 1.4 4.63 4.63 1.4-1.4-4.63-4.63Zm2.07-3.39-1.4 1.4 5.94 5.94 1.4-1.4-5.94-5.94Zm20.28-9.6-2.35 2.34 7.3 7.79 1.6-3.96-6.55-6.17Zm-4.94-4.58L19.24.1l-1.47 1.36 8.9 9.4 1.97-1.99Zm13.22-6.05c.5-.62.5-1.6 0-2.1L41.6.46c-.62-.61-1.6-.61-2.1 0L16.53 23.44l2.35 2.35L41.86 2.81Z"/>
</svg>
