<svg xmlns="http://www.w3.org/2000/svg" fill="#FFC700" viewBox="0 0 60 53">
  <path d="M4.07 0H1.6L.37 26.3 1.6 52.6h2.47L5.06 31l9.75 1.72V19.88L5.06 21.6 4.07 0ZM58.4 0h-2.47l-.99 21.6-9.75-1.72v12.84L54.94 31l.99 21.61h2.47l1.23-26.3L58.4 0ZM24.94 11.6l-7.66 5.44V35.3l7.66 5.44h10.25l7.65-5.44V17.16l-7.65-5.43H24.94v-.12Zm12.72 14.7A7.7 7.7 0 0 1 30 33.96a7.7 7.7 0 0 1-7.66-7.66A7.7 7.7 0 0 1 30 18.64a7.7 7.7 0 0 1 7.66 7.66Z"/>
  <path d="M30 31.49a5.19 5.19 0 1 0 0-10.38 5.19 5.19 0 0 0 0 10.38Z"/>
</svg>
