<svg xmlns="http://www.w3.org/2000/svg" fill="#FFC700" viewBox="0 0 41 49">
  <path d="M36.6 10.88c0-4.8-3.8-9.4-8.6-10.2-5.3-.9-10.6-.9-15.8 0-4.7.8-8.6 5.4-8.6 10.2v3h33v-3Zm3.6 15.69v-5.2c0-2.4-2.6-2.8-3.5-3.4h-.1v-1.5h-33v1.5h-.1l-1.9.9c-1 .5-1.6 1.4-1.6 2.5v5.2c0 1.1.6 2 1.6 2.5l1.9.9a9.6 9.6 0 0 1-2.5 4.9c-.5.5-.5 1.3 0 1.9l2.2 2.3c.8.8.7 1.3 2.3 5.8.4 1.1 1.6 1.8 2.7 1.5 2-.4 3.8-.8 5.6-1 .6 1.7 2.1 2.7 3.7 2.7h5.2c1.7 0 3.2-1 3.8-2.7 1.8.2 3.7.6 5.6 1 1.2.3 2.4-.4 2.7-1.5.5-1.6 1.2-3.7 1.6-4.7.3-1 .9-1.3 2.9-3.4.5-.5.5-1.3 0-1.9-1.3-1.3-2.2-3-2.5-4.9.8-.6 3.4-1 3.4-3.4Zm-36.6 1.3-1.2-.6c-.3-.1-.5-.4-.5-.8v-5.2c0-.3.2-.6.5-.8l1.2-.5v7.9Zm3.4-7c-.3-.7.2-1.5.8-1.5h9.1c.7 0 1.1.8.8 1.5-1 2.4-3.1 3.9-5.4 3.9-2.3 0-4.3-1.5-5.3-3.9Zm3 21.3a2 2 0 0 1-2-2c0-1.1.9-2 2-2a2 2 0 0 1 2 2 2 2 0 0 1-2 2Zm12.7 3.9h-5.2c-1.6 0-2.6-1.8-1.7-3.2l2.6-3.8c.8-1.2 2.5-1.2 3.3 0l2.6 3.8c1 1.3 0 3.2-1.6 3.2Zm5.1-13.5c-.3.4-.9.5-1.4.2-6.4-5.1-12.4-.2-12.7 0-.4.3-1 .3-1.4-.1-.3-.4-.3-1 .1-1.4.1-.1 7.4-6.2 15.1 0 .6.2.6.9.3 1.3Zm2.4 9.6a2 2 0 0 1-2-2c0-1.1.9-2 2-2a2 2 0 0 1 2 2c-.1 1.1-1 2-2 2Zm3-21.3c-1 2.4-3.1 3.9-5.4 3.9-2.3 0-4.4-1.5-5.4-3.9-.3-.7.2-1.5.8-1.5h9.1c.7 0 1.2.8.9 1.5Zm5.1 5.7c0 .8-.9.9-1.7 1.3v-7.9c.7.4 1.7.5 1.7 1.3v5.3Z"/>
</svg>
