<svg xmlns="http://www.w3.org/2000/svg" aria-hidden="true" overflow="hidden" style="position:absolute;width:0;height:0">
  <defs>
    <symbol id="icon-logo" viewBox="0 0 72 32">
      <path fill="currentColor" d="M0 10h10.57c.3 0 3.25.5 1.28-1.3-2.17-1.96-2.41-3.6-2.49-4.9C9.29 2.5 10.57 0 13.18 0h21.46v4.5h-6.63V15h-4.92V4.5h-6.2c-.9 0-2.1 0-1.03 1l1.88 2.22c1.23 1.38.83 2.06.83 3.11 0 2.6-2.18 4.17-3.88 4.17H0v-5zM45.51 0h-7.93l-4.45 15h4.95l.8-2.1h5.23l.77 2.1h4.85L45.5 0zM40 9.3l1.7-5.5 1.61 5.5H40zm25.4.7c-1.9 0-1.9-.7-1.9-.7 1.63 0 3.08-2.37 3.08-4.8S64.2 0 62.29 0H51.61v15h5.42v-5s2.31 2.7 3.52 3.8c1.2 1.1 1.3 1.2 2.94 1.2h8.5v-5h-6.6zm-4.92-3.5h-3.44V3.8h3.44c1.58 0 1.85 2.7 0 2.7zM0 16.92l4.44 14.99h4.52l2.18-7.1 1.94 7.1h4.42l4.42-15H17.1l-1.52 5-1.5-5H8.25l-1.3 5-1.4-5.01H0zm33.3.08h-7.93l-4.45 15h4.95l.8-2.1h5.23l.77 2.1h4.85L33.3 17zm-5.52 9.3 1.7-5.5 1.61 5.5h-3.31zm37.72-4.89H72v-4.5H61.86c-2.61 0-3.74 2.6-3.66 3.9.07 1.3.31 2.94 2.48 4.9 1.98 1.8-.98 1.3-1.28 1.3h-5.84c-1.21 0-1.93-.72-1.93-.72 1.64 0 3.09-2.37 3.09-4.8S52.33 17 50.43 17H39.76v15h5.42v-5s2.31 2.7 3.51 3.8C49.9 31.9 50 32 51.63 32l11.85-.08c1.71 0 4.3-1.58 4.3-4.18 0-1.04.02-1.62-1.22-3.01l-1.87-2.22c-1.08-1-.1-1.1.8-1.1zM48.61 23.5h-3.44v-2.7h3.44c1.58 0 1.85 2.7 0 2.7z"/>
    </symbol>
    <symbol id="icon-moon" viewBox="0 0 32 32">
      <path fill="currentColor" d="M17.7 32a15.97 15.97 0 0 0 12.43-5.92.75.75 0 0 0-.72-1.21 12.54 12.54 0 0 1-8.55-23.21.75.75 0 0 0-.23-1.4A16 16 0 1 0 17.7 32z"/>
    </symbol>
    <symbol id="icon-sun" viewBox="0 0 32 32">
      <path fill="currentColor" d="M16 10c-3.3 0-6 2.7-6 6s2.7 6 6 6 6-2.7 6-6-2.7-6-6-6zm15.4 5.03-5.92-2.96 2.1-6.27a1.08 1.08 0 0 0-1.37-1.37l-6.28 2.1L16.97.6c-.4-.8-1.54-.8-1.94 0l-2.95 5.92-6.29-2.1A1.08 1.08 0 0 0 4.43 5.8l2.09 6.28L.6 15.03c-.8.4-.8 1.54 0 1.94l5.92 2.96-2.1 6.28c-.28.85.53 1.65 1.37 1.37l6.28-2.1 2.95 5.92c.4.8 1.54.8 1.94 0l2.96-5.92 6.27 2.1c.85.28 1.66-.53 1.37-1.37l-2.1-6.28 5.93-2.95c.81-.41.81-1.55.01-1.95zm-9.74 6.63a8 8 0 0 1-11.32-11.32 8 8 0 0 1 11.32 11.32z"/>
    </symbol>
    <symbol id="icon-close" viewBox="0 0 32 32">
      <path fill="currentColor" d="M32 3.22 28.78 0 16 12.78 3.22 0 0 3.22 12.78 16 0 28.78 3.22 32 16 19.22 28.78 32 32 28.78 19.22 16 32 3.22z"/>
    </symbol>
    <symbol id="icon-tie-fighter" viewBox="0 0 36 32">
      <path fill="currentColor" d="M2.46 0H.96L.23 15.88l.75 15.88h1.49l.6-13.04 5.88 1.03V12l-5.88 1.04L2.46 0zm32.8 0h-1.5l-.59 13.04L27.28 12v7.75l5.9-1.03.59 13.04h1.49L36 15.9 35.26 0zm-20.2 7-4.63 3.29V21.3l4.63 3.29h6.19l4.62-3.29V10.36l-4.62-3.28h-6.2v-.07zm7.68 8.88a4.65 4.65 0 0 1-4.63 4.62 4.65 4.65 0 0 1-4.62-4.62 4.65 4.65 0 0 1 4.62-4.63 4.65 4.65 0 0 1 4.63 4.63z"/>
      <path fill="currentColor" d="M18.11 19.01a3.13 3.13 0 1 0 0-6.27 3.13 3.13 0 1 0 0 6.27z"/>
    </symbol>
    <symbol id="icon-youtube" viewBox="0 0 46 32">
      <path fill="currentColor" d="M18.29 22.86 30.15 16 18.29 9.14v13.72zM44.7 4.96c.3 1.07.5 2.51.64 4.34.16 1.83.23 3.4.23 4.78l.14 1.92c0 5-.37 8.69-1.01 11.04a5.35 5.35 0 0 1-3.95 3.95c-1.08.3-3.04.5-6.06.64-2.97.16-5.7.23-8.2.23l-3.64.14c-9.58 0-15.54-.37-17.9-1A5.37 5.37 0 0 1 1 27.08v-.04a22.8 22.8 0 0 1-.63-4.34 51.44 51.44 0 0 1-.23-4.78L0 16c0-5 .37-8.7 1-11.04A5.35 5.35 0 0 1 4.97 1C6.77.62 8.86.39 11 .37h.02C13.99.2 16.7.14 19.22.14L22.86 0c9.57 0 15.54.37 17.9 1a5.35 5.35 0 0 1 3.95 3.96z"/>
    </symbol>
    <symbol id="icon-twitter" viewBox="0 0 41 32">
      <path fill="currentColor" d="M40.4 3.77a16.57 16.57 0 0 1-4.64 1.3A8.14 8.14 0 0 0 39.3.63l.01-.06c-1.56.94-3.3 1.6-5.12 1.98a8.04 8.04 0 0 0-14.01 5.42c0 .69.08 1.36.25 2l-.01-.06A22.95 22.95 0 0 1 3.8 1.52l-.03-.03a7.98 7.98 0 0 0 2.47 10.73l.03.01a7.99 7.99 0 0 1-3.67-.94v.06a8.1 8.1 0 0 0 6.42 7.92h.05a7.7 7.7 0 0 1-3.68.13h.05a8.07 8.07 0 0 0 7.52 5.62h.01A15.94 15.94 0 0 1 .94 28.36h.08A22.64 22.64 0 0 0 13.38 32h.03c14.83 0 22.98-12.31 22.98-23l-.02-1.05a16.27 16.27 0 0 0 4-4.14l.03-.06z"/>
    </symbol>
    <symbol id="icon-inst" viewBox="0 0 32 32">
      <path fill="currentColor" d="M9.28 0h13.44A9.29 9.29 0 0 1 32 9.28v13.44A9.28 9.28 0 0 1 22.72 32H9.28A9.28 9.28 0 0 1 0 22.72V9.28A9.28 9.28 0 0 1 9.28 0zm-.32 3.2A5.76 5.76 0 0 0 3.2 8.96v14.08a5.76 5.76 0 0 0 5.76 5.76h14.08a5.76 5.76 0 0 0 5.76-5.76V8.96a5.76 5.76 0 0 0-5.76-5.76H8.96zM24.4 5.6a2 2 0 1 1 0 4 2 2 0 1 1 0-4zM16 8a8 8 0 0 1 0 16 8 8 0 0 1 0-16zm0 3.2a4.8 4.8 0 1 0 0 9.6 4.8 4.8 0 1 0 0-9.6z"/>
    </symbol>
    <symbol id="icon-swords" viewBox="0 0 46 32">
      <path fill="currentColor" d="M42.06 28.4a.57.57 0 0 0 0-.75l-5.28-5.27a.57.57 0 0 0-.75 0l-.09.19a.57.57 0 0 0 0 .75l5.27 5.27c.2.19.57.19.76 0l.09-.19zm.66-1.31c.18.19.56.19.75 0l.1-.1a.57.57 0 0 0 0-.76l-5.28-5.26a.57.57 0 0 0-.75 0l-.1.09a.57.57 0 0 0 0 .76l5.28 5.27zm-7.34-3.2a.57.57 0 0 0-.76 0l-.09.09a.57.57 0 0 0 0 .76L39.8 30c.19.2.57.2.75 0l.1-.09a.57.57 0 0 0 0-.76l-5.27-5.26zm9.88 4.6a.74.74 0 0 0-1.04 0l-2.16 2.18a.74.74 0 0 0 0 1.02c.28.3.75.3 1.03 0l2.17-2.16a.74.74 0 0 0 0-1.04zm-9.32-9.88.19-.19a.74.74 0 0 0 0-1.03l-.2-.19a.74.74 0 0 0-1.03 0l-.19.2-2.53-2.55L30 20.21l.94.95-.18.18a.74.74 0 0 0 0 1.04l.18.19c.28.28.75.28 1.04 0l.19-.2.93.95 3.77-3.76-.94-.95zM.83 27.84l.56.56-1.12 1.13 2.43 2.45 1.15-1.13.45.56 3.58-3.58-3.58-3.47-3.47 3.48zm5.6-5.65-1.06 1.07 3.54 3.53 1.06-1.07-3.53-3.53zm2.13-2.05L7.49 21.2l3.53 3.53 1.06-1.07-3.52-3.52zm1.57-2.59-1.06 1.07 4.52 4.53 1.07-1.07-4.53-4.53zm15.46-7.31-1.8 1.78 5.57 5.94 1.22-3.02-5-4.7zm-3.77-3.49L14.66.08 13.54 1.1l6.78 7.16 1.5-1.51zm10.07-4.6c.38-.48.38-1.23 0-1.6l-.2-.2c-.47-.46-1.21-.46-1.6 0L12.6 17.86l1.8 1.79 17.5-17.5z"/>
    </symbol>
    <symbol fill="currentColor" id="icon-death-star-svg" viewBox="0 0 31 32">
      <path d="M20.66 4.44a2.4 2.4 0 0 0-1.83 1.82v.01h1.83V4.44zm.97 0v1.83h1.84a2.4 2.4 0 0 0-1.82-1.82h-.02zm-.97 4.65V7.25h-1.84c.13.92.92 1.63 1.84 1.84zm2.8-1.84h-1.83V9.1a2.4 2.4 0 0 0 1.83-1.82v-.02zm7.91 8.24a3.69 3.69 0 0 0-1.66 7.19h.03a15.53 15.53 0 0 0 1.63-7.19z"/>
      <path d="M30.26 9.87C27.88 4.04 22.26.01 15.7 0A15.6 15.6 0 0 0 3.53 5.75c1.3-.06 2.68-.13 4.12-.32.32-.06.65.19.71.58s-.18.72-.58.72c-1.83.27-3.6.4-5.3.4-.29.4-.55.85-.76 1.33l-.02.04c2.87.13 6.01-.13 9.22-.79.32-.06.71.13.78.53a.67.67 0 0 1-.53.78 36.94 36.94 0 0 1-10.06.79c-.16.35-.31.78-.44 1.23l-.02.07c4.84.52 9.41-.26 12.75-1.1.32-.07.72.12.78.45.06.33-.13.71-.46.78a37.36 37.36 0 0 1-13.4 1.11L.14 13.6c4.97.71 10.59.19 16.2-1.57.33-.13.73.06.86.39.13.32-.06.72-.4.85-5.42 1.7-11.24 2.48-16.8 1.63v1.5c7.4 1.05 22.3-1.37 30.27-6.53zm-9.15-6.8a3.72 3.72 0 1 1 0 7.45h-.04a3.68 3.68 0 0 1-3.68-3.68v-.05a3.77 3.77 0 0 1 3.72-3.72z"/>
      <path d="M25.88 19.09a4.64 4.64 0 0 1 5.46-4.58h-.03a14.43 14.43 0 0 0-.66-3.4C22.68 16.08 8.23 18.9.13 17.85l.2 1.17c5.16.91 11.04.46 16.99-1.5.32-.13.72.06.85.39.13.32-.06.72-.4.85A37.87 37.87 0 0 1 .73 20.4c.13.46.33.92.52 1.38 5.1.84 10.07.2 13.66-.66.33-.06.72.13.79.46.06.33-.13.72-.52.78a37.87 37.87 0 0 1-13.28.79c.27.52.6.98.85 1.44 3.14.38 6.6.32 10.33-.27.4-.06.72.2.72.52.06.33-.2.73-.52.73a36.23 36.23 0 0 1-9.54.45h.13c.47.54.96 1.03 1.49 1.5l.01.01c2.29.12 4.71.06 7.25-.33.33-.07.72.2.72.59.07.32-.2.72-.59.72-1.9.26-3.72.39-5.62.39a15.67 15.67 0 0 0 8.5 2.54c5.79 0 10.83-3.12 13.55-7.76l.04-.08a4.74 4.74 0 0 1-3.33-4.5zm-3.72 9.08h-.01a3.2 3.2 0 1 1 3.2-3.2 3.25 3.25 0 0 1-3.2 3.2z"/>
      <path d="M22.16 27.19a2.22 2.22 0 1 0 0-4.45 2.22 2.22 0 1 0 0 4.45z"/>
    </symbol>
    <symbol id="icon-trooper" viewBox="0 0 27 32">
      <path fill="currentColor" d="M23.9 7.1A6.97 6.97 0 0 0 18.3.45a30.4 30.4 0 0 0-10.32 0 7.03 7.03 0 0 0-5.62 6.67v1.95H23.9V7.1zm2.35 10.25v-3.4c0-1.56-1.7-1.82-2.28-2.21h-.07v-.98H2.35v.98H2.3l-1.25.58C.4 12.65 0 13.24 0 13.96v3.4c0 .71.4 1.3 1.04 1.63l1.25.58a6.27 6.27 0 0 1-1.64 3.2c-.32.33-.32.85 0 1.24l1.44 1.5c.52.53.46.86 1.5 3.8.26.71 1.05 1.17 1.76.97 1.31-.26 2.49-.52 3.66-.65a2.57 2.57 0 0 0 2.42 1.76h3.4a2.6 2.6 0 0 0 2.48-1.76c1.17.13 2.41.4 3.65.65.79.2 1.57-.26 1.77-.98.32-1.04.78-2.41 1.04-3.06.2-.66.59-.85 1.9-2.22.32-.33.32-.85 0-1.25a5.8 5.8 0 0 1-1.64-3.2c.52-.39 2.22-.65 2.22-2.22zm-23.9.85-.78-.4c-.2-.06-.33-.25-.33-.51v-3.4c0-.2.13-.4.33-.52l.78-.33v5.16zm2.22-4.57c-.2-.46.13-.98.52-.98h5.95c.45 0 .71.52.52.98-.66 1.57-2.03 2.55-3.53 2.55s-2.8-.98-3.46-2.55zm1.96 13.91a1.3 1.3 0 0 1-1.3-1.3 1.3 1.3 0 1 1 2.6-.01 1.3 1.3 0 0 1-1.3 1.31zm8.3 2.55h-3.4a1.35 1.35 0 0 1-1.11-2.1l1.7-2.47a1.28 1.28 0 0 1 2.15 0l1.7 2.48c.65.85 0 2.09-1.04 2.09zm3.33-8.82c-.2.26-.6.33-.92.13-4.18-3.33-8.1-.13-8.3 0a.7.7 0 0 1-.9-.06.7.7 0 0 1 .06-.92c.06-.06 4.83-4.05 9.86 0 .4.13.4.59.2.85zm1.56 6.27a1.3 1.3 0 0 1-1.3-1.3 1.3 1.3 0 1 1 2.6-.01c-.06.72-.64 1.31-1.3 1.31zm1.96-13.91c-.65 1.57-2.02 2.55-3.53 2.55s-2.87-.98-3.52-2.55c-.2-.46.13-.98.52-.98h5.94c.46 0 .79.52.6.98zm3.33 3.72c0 .52-.59.59-1.1.85v-5.16c.45.26 1.1.33 1.1.85v3.46z"/>
    </symbol>
    <symbol fill="currentColor" id="icon-hand" viewBox="0 0 23 32">
      <path d="M6.33 24.25c0-.22.05-.44.11-.65l-2.13-1.24a4.36 4.36 0 0 0 0 3.78l-.01-.03 2.13-1.23a2.1 2.1 0 0 1-.1-.63zM4.7 26.8a4.46 4.46 0 0 0 3.24 1.88h.02v-2.47a2.02 2.02 0 0 1-1.13-.65L4.69 26.8zm7.28-5.12a4.45 4.45 0 0 0-3.22-1.86h-.02v2.47c.43.08.82.3 1.1.63l2.14-1.23zm-2.4 2.57c0-.66-.56-1.22-1.23-1.22s-1.23.55-1.23 1.22a1.22 1.22 0 1 0 2.45 0zM7.94 22.3v-2.47c-1.34.12-2.5.82-3.23 1.85l-.01.01 2.13 1.24c.28-.32.66-.54 1.1-.63h.01z"/>
      <path d="M22.53 17.51a1.2 1.2 0 0 0-1.48-.25l-4.35 2.37a.97.97 0 0 1-.49.13c-.56 0-1.02-.45-1.04-1.02l-.43-15.41v-.01a1.55 1.55 0 0 0-3.1 0v13a.4.4 0 0 1-.78 0V1.54a1.55 1.55 0 0 0-3.1 0v14.12a.4.4 0 0 1-.78 0V3.8a1.55 1.55 0 0 0-3.1 0v12.51a.4.4 0 0 1-.79 0V5.86a1.55 1.55 0 0 0-3.09 0L.6 28.3a3.47 3.47 0 0 0 3.47 3.4h9.61c1.32 0 2.46-.73 3.05-1.8l.01-.02L22.7 18.9c.25-.46.17-1.01-.17-1.4zM8.34 29.5a5.25 5.25 0 0 1 0-10.5 5.26 5.26 0 0 1 .02 10.49h-.01z"/>
      <path d="M8.73 26.21v2.48A4.46 4.46 0 0 0 12 26.8v-.01l-2.13-1.24c-.3.34-.69.57-1.13.66zm1.62-1.96c0 .21-.04.43-.1.63l2.13 1.23a4.35 4.35 0 0 0-.02-3.77v.03l-2.13 1.23c.08.2.12.42.12.65z"/>
    </symbol>
    <symbol fill="currentColor" id="icon-at-at" viewBox="0 0 38 32">
      <path d="M38.24 4.16 33.2 2.48V0H21.52v2.48l-5.04 1.68v5.68h21.76V4.16zm-8.88 12-.32 2a2.87 2.87 0 0 1 2.57.33v-.01l.4-2.4h-2.65v.08zm-.24 8 .8 3.04h2.64l-.96-3.52c-.72.56-1.76.72-2.48.48zm3.52 4.56h-2.72a.8.8 0 0 0-.8.8v.96h4.4v-.96c0-.48-.4-.8-.88-.8zm-9.2.16h-2.72a.8.8 0 0 0-.8.8v.96h4.4v-.96c0-.4-.4-.8-.88-.8zm7.92-7.76a1.52 1.52 0 1 0-1.52 1.52c.88.08 1.52-.64 1.52-1.52zm-16.48-.48v-2.08l-1.2 1.04c.4.4.72.96.8 1.52.16-.16.24-.32.4-.48zm4.8 4a2.84 2.84 0 0 1-2 1.12h-.48c-.8 0-1.53-.31-2.08-.8l-.56 3.12h2.64l.48-2.32 2.08 1.44h3.68l-3.76-2.56zm-8.16-4.4a1.52 1.52 0 1 0 1.52 1.52c0-.72-.64-1.52-1.52-1.52zm22.56 5.52.8 3.04h2.64l-.96-3.52a3.18 3.18 0 0 1-2.5.48h.02z"/>
      <path d="M18.8 20c0-.08.4-1.92.32-1.76l.4-2.08 2.64-1.6h10.4l1.92 1.68-.32 1.76-.32 1.68a2.87 2.87 0 0 1 2.57.33v-.17l.4-2.24 1.43-3.12v-3.2H16.48l-.32 8.4a3.39 3.39 0 0 1 2.64.32zm18.8 10.24h-2.72a.8.8 0 0 0-.8.8V32h4.32v-.96c0-.4-.4-.8-.8-.8zm-20.24-.48h-2.72a.8.8 0 0 0-.8.8v.96h4.4v-.96c-.08-.4-.4-.8-.88-.8zm18.96-7.04a1.52 1.52 0 1 0-1.52 1.52c.8 0 1.52-.72 1.52-1.52zM17.2 24.24c.88 0 1.52-.72 1.52-1.52 0-2-3.12-2.08-3.12 0 .08.88.8 1.52 1.6 1.52zM0 7.2v2.64h9.44V3.68H3.52L0 7.2zm5.52-2.24c1.2 0 2.24.96 2.24 2.24S6.8 9.44 5.52 9.44a2.24 2.24 0 0 1 0-4.48z"/>
      <path d="M5.52 8.24c.64 0 1.12-.48 1.12-1.12S6.16 6 5.52 6c-.56 0-1.12.48-1.12 1.12s.48 1.12 1.12 1.12zm9.36-3.36h-1.12v3.76h1.12V4.88zm-2.64 0h-1.12v3.76h1.12V4.88z"/>
    </symbol>
  </defs>
</svg>
